<svg width="53px" height="20px" viewBox="0 0 53 20" version="1.1" xmlns="http://www.w3.org/2000/svg" xmlns:xlink="http://www.w3.org/1999/xlink">
    <!-- Generator: Sketch 44.1 (41455) - http://www.bohemiancoding.com/sketch -->
    <desc>Created with Sketch.</desc>
    <defs></defs>
    <g id="Style-guide" stroke="none" stroke-width="1" fill="none" fill-rule="evenodd">
        <g id="icons" transform="translate(-371.000000, -299.000000)" fill-rule="nonzero" fill="#288CE8">
            <g id="Icons" transform="translate(39.000000, 40.000000)">
                <g id="pay" transform="translate(1.000000, 254.000000)">
                    <g id="Group-2" transform="translate(136.000000, 1.000000)">
                        <g id="american-express-logo" transform="translate(195.000000, 4.000000)">
                            <path d="M20.5938125,15.0866667 L22.7690208,12.7366667 L22.7690208,17.5177778 L20.5938125,15.0866667 Z M13.6728958,13.3266667 L13.6728958,14.4122222 L16.781125,14.4122222 L16.781125,15.63 L13.6728958,15.63 L13.6728958,16.8166667 L17.1532292,16.8166667 L18.7708333,15.0644444 L17.2216875,13.3288889 L13.6717917,13.3288889 L13.6717917,13.3266667 L13.6728958,13.3266667 Z M52.185125,14.2222222 C52.66875,14.7255556 52.8917917,15.3444444 52.8917917,16.1755556 C52.8917917,17.97 51.6959792,19.0422222 49.6897083,19.0422222 L46.9315,19.0422222 C46.5262708,19.0422222 46.1795625,18.7944444 46.0327083,18.4433333 C45.4971875,18.8255556 44.7816875,19.0422222 43.903875,19.0422222 L41.1456667,19.0422222 C40.988875,19.0422222 40.84975,18.9988889 40.7205625,18.9355556 C40.591375,18.9988889 40.4489375,19.0422222 40.2954583,19.0422222 L35.5685208,19.0422222 C35.4117292,19.0422222 35.2692917,18.9966667 35.1367917,18.9311111 C35.0065,18.9988889 34.8629583,19.0422222 34.7039583,19.0422222 L33.2828958,19.0422222 C32.7440625,19.0422222 32.3035,18.6022222 32.3035,18.0588889 L32.3035,17.1911111 C32.3057083,17.1066667 32.3057083,16.9788889 32.3012917,16.8722222 C32.2350417,16.8677778 32.1433958,16.8633333 32.0131042,16.8633333 L31.4797917,16.8633333 L31.4797917,18.0588889 C31.4797917,18.6011111 31.0425417,19.0422222 30.5003958,19.0422222 L29.077125,19.0422222 C28.5360833,19.0422222 28.0977292,18.6022222 28.0977292,18.0588889 L28.0977292,16.5422222 C27.5942292,16.8433333 26.9019167,17.0411111 25.9446042,17.0411111 L25.1573333,17.0411111 L25.1573333,18.0588889 C25.1573333,18.6011111 24.7200833,19.0422222 24.1779375,19.0422222 L21.42525,19.0422222 C21.1458958,19.0422222 20.8786875,18.9233333 20.6931875,18.7122222 L19.6674167,17.5511111 L18.5864375,18.7277778 C18.4009375,18.93 18.1414583,19.0444444 17.8687292,19.0444444 L12.2584583,19.0444444 C11.7185208,19.0444444 11.2801667,18.6044444 11.2801667,18.0588889 L11.2801667,12.0955556 C11.2801667,11.5511111 11.7174167,11.11 12.2584583,11.11 L17.95375,11.11 C18.2331042,11.11 18.497,11.2255556 18.6813958,11.4377778 L19.7104792,12.5877778 L20.782625,11.4244444 C20.9692292,11.2222222 21.2287083,11.1111111 21.5014375,11.1111111 L26.0263125,11.1111111 C27.01675,11.1111111 27.7134792,11.3322222 28.2114583,11.6577778 C28.3726667,11.3366667 28.6950833,11.1111111 29.0760208,11.1111111 L32.3476667,11.1111111 C33.0985,11.1111111 33.82725,11.1388889 34.5129375,11.5077778 C34.5836042,11.55 34.6332917,11.6055556 34.7006458,11.6533333 C34.8629583,11.3344444 35.1842708,11.1111111 35.5652083,11.1111111 L40.2910417,11.1111111 C40.657625,11.1111111 40.9634792,11.32 41.1335208,11.6255556 C41.6016875,11.3055556 42.2167083,11.1111111 42.9973542,11.1111111 L45.8350625,11.1111111 C46.262375,11.1111111 46.6112917,11.3866667 46.7471042,11.7688889 C47.2329375,11.3733333 47.8998542,11.1111111 48.7842917,11.1111111 L51.622,11.1111111 C52.1630417,11.1111111 52.6013958,11.5511111 52.6013958,12.0966667 L52.6013958,13.3666667 C52.6013958,13.7133333 52.4225208,14.0177778 52.1542083,14.1933333 C52.1641458,14.2011111 52.1751875,14.2122222 52.185125,14.2222222 Z M28.4124167,14.06 C28.4124167,12.4088889 27.1481458,12.0922222 26.0252083,12.0922222 L21.5003333,12.0922222 L19.6983333,14.0477778 L17.95375,12.0922222 L12.2584583,12.0922222 L12.2584583,18.0566667 L17.8687292,18.0566667 L19.6817708,16.0833333 L21.4263542,18.0566667 L24.1790417,18.0566667 L24.1790417,16.0555556 L25.9457083,16.0555556 C27.1845833,16.0588889 28.4124167,15.7144444 28.4124167,14.06 Z M33.7775625,15.2877778 C34.1485625,15.1377778 34.78125,14.6522222 34.78125,13.6988889 C34.78125,13.02 34.4996875,12.6466667 34.0536042,12.3755556 C33.5865417,12.1255556 33.065375,12.0955556 32.349875,12.0955556 L29.0782292,12.0955556 L29.0782292,18.0588889 L30.5015,18.0588889 L30.5015,15.8822222 L32.0142083,15.8822222 C32.5331667,15.8822222 32.8478542,15.9322222 33.0510208,16.1444444 C33.3160208,16.4222222 33.2817917,16.9544444 33.2817917,17.3122222 L33.2817917,18.0588889 L34.7028542,18.0588889 L34.7028542,16.8766667 C34.6962292,16.3511111 34.6697292,16.08 34.4676667,15.7888889 C34.3484167,15.6133333 34.0911458,15.4033333 33.7775625,15.2877778 Z M40.29325,12.0955556 L35.5674167,12.0955556 L35.5674167,18.0588889 L40.29325,18.0588889 L40.29325,16.8222222 L36.9763333,16.8155556 L36.9763333,15.6311111 L40.2115417,15.6311111 L40.2115417,14.4133333 L36.9763333,14.4133333 L36.9763333,13.3277778 L40.29325,13.3277778 L40.29325,12.0955556 Z M46.1221458,16.1744444 C46.1221458,15.5622222 45.9752917,15.1977778 45.6970417,14.91 C45.3779375,14.5844444 44.8490417,14.4511111 44.0816458,14.43 L43.320875,14.4077778 C43.0790625,14.4077778 42.9200625,14.3922222 42.7687917,14.34 C42.5910208,14.2711111 42.459625,14.1211111 42.459625,13.8955556 C42.459625,13.7066667 42.5181458,13.5633333 42.6738333,13.4655556 C42.8151667,13.3677778 42.9818958,13.3566667 43.241375,13.3566667 L45.8394792,13.3566667 L45.8394792,12.0877778 L43.0017708,12.0877778 C41.5155625,12.0877778 40.9767292,12.9955556 40.9767292,13.8633333 C40.9767292,15.7488889 42.6362917,15.6644444 43.9590833,15.7077778 C44.2075208,15.7077778 44.3532708,15.7488889 44.4636875,15.84 C44.5630625,15.9233333 44.6359375,16.06 44.6359375,16.2333333 C44.6359375,16.3955556 44.5674792,16.5322222 44.4703125,16.6233333 C44.3510625,16.7377778 44.1600417,16.7711111 43.8928333,16.7711111 L41.1467708,16.7711111 L41.1467708,18.0522222 L43.9049792,18.0522222 C45.32825,18.0588889 46.1221458,17.46 46.1221458,16.1744444 Z M51.9112917,16.1744444 C51.9112917,15.5622222 51.7622292,15.1977778 51.4861875,14.91 C51.1670833,14.5844444 50.6370833,14.4511111 49.8685833,14.43 L49.1078125,14.4077778 C48.866,14.4077778 48.7081042,14.3922222 48.5557292,14.34 C48.3801667,14.2711111 48.2476667,14.1211111 48.2476667,13.8955556 C48.2476667,13.7066667 48.3050833,13.5633333 48.4607708,13.4655556 C48.601,13.3677778 48.7688333,13.3566667 49.0294167,13.3566667 L51.6264167,13.3566667 L51.6264167,12.0877778 L48.7887083,12.0877778 C47.3025,12.0877778 46.7636667,12.9955556 46.7636667,13.8633333 C46.7636667,15.7488889 48.422125,15.6644444 49.7460208,15.7077778 C49.9955625,15.7077778 50.1413125,15.7488889 50.250625,15.84 C50.35,15.9233333 50.422875,16.06 50.422875,16.2333333 C50.422875,16.3955556 50.3544167,16.5322222 50.25725,16.6233333 C50.1391042,16.7377778 49.9480833,16.7711111 49.680875,16.7711111 L46.9337083,16.7711111 L46.9337083,18.0522222 L49.6919167,18.0522222 C51.1151875,18.0588889 51.9112917,17.46 51.9112917,16.1744444 Z M26.0263125,13.3266667 L24.1801458,13.3266667 L24.1801458,14.8455556 L26.0086458,14.8455556 C26.553,14.8455556 26.8919792,14.5744444 26.8919792,14.06 C26.890875,13.5355556 26.5386458,13.3266667 26.0263125,13.3266667 Z M26.8588542,4.27444444 C27.0410417,4.17777778 27.1503542,3.96777778 27.1503542,3.70777778 C27.1503542,3.45222222 27.036625,3.26777778 26.8533333,3.18111111 C26.6855,3.08555556 26.427125,3.07333333 26.182,3.07333333 L24.4374167,3.07333333 L24.4374167,4.39666667 L26.1588125,4.39666667 C26.4315417,4.39666667 26.6612083,4.39222222 26.8588542,4.27444444 Z M32.9218333,13.4366667 C32.7495833,13.3333333 32.495625,13.3288889 32.2460833,13.3288889 L30.5015,13.3288889 L30.5015,14.6677778 L32.2228958,14.6677778 C32.4989375,14.6677778 32.734125,14.6588889 32.9251458,14.5466667 C33.1084375,14.4333333 33.21775,14.23 33.21775,13.9733333 C33.2144375,13.7166667 33.105125,13.5322222 32.9218333,13.4366667 Z M38.153375,2.84444444 L37.1806042,5.22111111 L39.1360833,5.22111111 L38.153375,2.84444444 Z M3.570875,5.22111111 L5.5020625,5.22111111 L4.53260417,2.84444444 L3.570875,5.22111111 Z M11.4976875,8.77888889 C11.1112292,8.77888889 10.7601042,8.54888889 10.6033125,8.19333333 L10.4178125,7.77 L10.4178125,7.79333333 C10.4178125,8.33666667 9.9805625,8.77777778 9.43952083,8.77777778 L6.55875,8.77777778 C6.16125,8.77777778 5.8035,8.53666667 5.65333333,8.16777778 L5.35852083,7.44777778 L3.71772917,7.44777778 L3.4185,8.17222222 C3.26722917,8.53888889 2.91058333,8.77888889 2.5175,8.77888889 L0.978291667,8.77888889 C0.64925,8.77888889 0.342291667,8.61222222 0.161208333,8.33666667 C-0.0187708333,8.05888889 -0.0507916667,7.71222222 0.0795,7.40666667 L2.61466667,1.44333333 C2.76925,1.08222222 3.12258333,0.846666667 3.5145625,0.846666667 L5.61689583,0.846666667 C6.008875,0.846666667 6.36220833,1.08111111 6.51679167,1.44222222 L7.04789583,2.68888889 L7.04789583,1.83222222 C7.04789583,1.28888889 7.48514583,0.847777778 8.0261875,0.847777778 L10.3383125,0.847777778 C10.7181458,0.847777778 11.0659583,1.07111111 11.2271667,1.42 L12.1535625,3.44444444 L12.9949375,1.44888889 C13.1484167,1.08444444 13.5028542,0.847777778 13.8937292,0.847777778 L16.2544375,0.847777778 C16.4531875,0.847777778 16.6265417,0.922222222 16.7822292,1.02444444 C16.9368125,0.922222222 17.1101667,0.847777778 17.3100208,0.847777778 L22.0402708,0.847777778 C22.2235625,0.847777778 22.385875,0.912222222 22.5305208,1 C22.6784792,0.912222222 22.8385833,0.847777778 23.021875,0.847777778 L26.2791667,0.847777778 C27.1216458,0.847777778 27.8205833,0.877777778 28.4852917,1.26444444 C28.55375,1.30444444 28.600125,1.35777778 28.6608542,1.40222222 C28.8220625,1.07777778 29.1455833,0.847777778 29.5320417,0.847777778 L30.9785,0.847777778 C31.4665417,0.847777778 31.8541042,1.21444444 31.9269792,1.68444444 C32.5607708,1.13111111 33.4220208,0.847777778 34.5858125,0.847777778 L35.953875,0.847777778 C36.1736042,0.847777778 36.377875,0.92 36.5401875,1.04333333 C36.7036042,0.918888889 36.9089792,0.847777778 37.1242917,0.847777778 L39.2465,0.847777778 C39.637375,0.847777778 39.9907083,1.08333333 40.1441875,1.44444444 L40.66425,2.66888889 L40.66425,1.83222222 C40.66425,1.28888889 41.1015,0.847777778 41.6425417,0.847777778 L43.8011875,0.847777778 C44.142375,0.847777778 44.4592708,1.02888889 44.6381458,1.32333333 L45.3105833,2.44666667 L45.3105833,1.83111111 C45.3105833,1.28777778 45.7478333,0.846666667 46.2899792,0.846666667 L47.73975,0.846666667 C48.2785833,0.846666667 48.7180417,1.28777778 48.7180417,1.83111111 L48.7180417,7.79444444 C48.7180417,8.33777778 48.2807917,8.77888889 47.73975,8.77888889 L45.7345833,8.77888889 C45.3900833,8.77888889 45.0731875,8.59777778 44.8954167,8.30333333 L44.0264375,6.85333333 L44.0264375,7.79444444 C44.0264375,8.33777778 43.5891875,8.77888889 43.0481458,8.77888889 L40.1662708,8.77888889 C39.769875,8.77888889 39.4143333,8.53888889 39.2630625,8.17333333 L38.9638333,7.44888889 L37.331875,7.44888889 L37.0436875,8.16333333 C36.894625,8.53555556 36.536875,8.78 36.1415833,8.78 L34.4820208,8.78 C33.8526458,8.78 32.7219792,8.66555556 31.91925,7.98666667 C31.8276042,8.43555556 31.4521875,8.78 30.9773958,8.78 L29.5309375,8.78 C29.3697292,8.78 29.2239792,8.73111111 29.0881667,8.66111111 C28.9545625,8.73 28.8099167,8.78 28.6498125,8.78 L27.2210208,8.78 C26.6843958,8.78 26.2460417,8.34333333 26.241625,7.80333333 L26.2361042,7.05111111 L26.2383125,6.92 C26.2383125,6.84 26.2405208,6.72 26.2338958,6.61888889 C26.16875,6.61444444 26.0815208,6.61111111 25.9589583,6.61111111 L25.4179167,6.61111111 L25.4179167,7.79555556 C25.4179167,8.33888889 24.9806667,8.78 24.439625,8.78 L23.021875,8.78 C22.8385833,8.78 22.677375,8.71555556 22.5305208,8.62777778 C22.385875,8.71555556 22.2235625,8.78 22.0402708,8.78 L17.3100208,8.78 C17.1101667,8.78 16.9368125,8.70444444 16.7822292,8.60333333 C16.6265417,8.70444444 16.4531875,8.78 16.2544375,8.78 L14.8024583,8.78 C14.2614167,8.78 13.8241667,8.34 13.8241667,7.79666667 L13.8241667,7.77222222 L13.6364583,8.19444444 C13.4796667,8.55111111 13.13075,8.78111111 12.7420833,8.78111111 L11.4976875,8.77888889 L11.4976875,8.77888889 Z M31.6697083,4.85777778 C31.6697083,5.94111111 31.9280833,6.62777778 32.429375,7.13444444 C32.9218333,7.64 33.7908125,7.79333333 34.4787083,7.79333333 L36.1371667,7.79333333 L36.669375,6.46333333 L39.6130833,6.46333333 L40.1651667,7.79333333 L43.0470417,7.79333333 L43.0470417,3.31777778 L45.7334792,7.79333333 L47.73975,7.79333333 L47.73975,1.83 L46.2899792,1.83 L46.2899792,5.98333333 L43.8011875,1.83 L41.6425417,1.83 L41.6425417,7.47 L39.2465,1.83 L37.1242917,1.83 L35.1235417,6.51888889 L34.4886458,6.51888889 C34.11875,6.51888889 33.72125,6.44777778 33.5015208,6.21111111 C33.2365208,5.91 33.1106458,5.45 33.1106458,4.81222222 C33.1106458,4.18666667 33.2751667,3.71222222 33.5169792,3.46111111 C33.7974375,3.18444444 34.0900417,3.10777778 34.6056875,3.10777778 L35.94725,3.10777778 L35.94725,1.83 L34.5791875,1.83 C33.6008958,1.83 32.8842917,2.04888889 32.4282708,2.52444444 C31.8253958,3.16444444 31.6697083,3.97333333 31.6697083,4.85777778 Z M34.6134167,4.09222222 C34.2810625,4.09222222 34.2468333,4.12666667 34.2059792,4.16666667 C34.1927292,4.18555556 34.0933542,4.4 34.0933542,4.81333333 C34.0933542,5.22222222 34.1585,5.41888889 34.2059792,5.50777778 C34.2567708,5.52111111 34.3484167,5.53666667 34.4842292,5.53666667 L35.09925,4.09333333 L34.6134167,4.09222222 L34.6134167,4.09222222 Z M29.5320417,7.79333333 L30.9785,7.79333333 L30.9785,1.83 L29.5320417,1.83 L29.5320417,7.79333333 Z M23.0207708,7.79333333 L24.4385208,7.79333333 L24.4385208,5.62444444 L25.95675,5.62444444 C26.466875,5.62444444 26.7826667,5.67 26.9891458,5.87888889 C27.2464167,6.16666667 27.2121875,6.68222222 27.2121875,7.04 L27.2188125,7.79222222 L28.6476042,7.79222222 L28.6476042,6.62222222 C28.6476042,6.09 28.613375,5.82555556 28.4124167,5.52888889 C28.2865417,5.35555556 28.0215417,5.14666667 27.7112708,5.02666667 C28.0778542,4.88 28.7083333,4.38777778 28.7083333,3.43777778 C28.7083333,2.77222222 28.4400208,2.38333333 27.9917292,2.11666667 C27.5346042,1.85 27.0012917,1.83111111 26.2769583,1.83111111 L23.0196667,1.83111111 L23.0196667,7.79333333 L23.0207708,7.79333333 Z M17.3089167,7.79333333 L22.0391667,7.79333333 L22.0391667,6.56 L18.7244583,6.56 L18.7244583,5.36888889 L21.9607708,5.36888889 L21.9607708,4.14666667 L18.7244583,4.14666667 L18.7244583,3.07222222 L22.0391667,3.07222222 L22.0391667,1.83 L17.3089167,1.83 L17.3089167,7.79333333 L17.3089167,7.79333333 Z M11.4976875,7.79333333 L12.7420833,7.79333333 L14.7958333,3.12333333 L14.8013542,7.79333333 L16.2533333,7.79333333 L16.2533333,1.83 L13.892625,1.83 L12.1911042,5.87555556 L10.3372083,1.83 L8.02508333,1.83 L8.02508333,7.47666667 L5.6146875,1.83 L3.51235417,1.83 L0.976083333,7.79333333 L2.51529167,7.79333333 L3.06516667,6.46333333 L6.01329167,6.46333333 L6.55764583,7.79333333 L9.440625,7.79333333 L9.440625,3.11888889 L11.4976875,7.79333333 Z" id="Shape"></path>
                        </g>
                    </g>
                </g>
            </g>
        </g>
    </g>
</svg>