<svg width="64px" height="20px" viewBox="0 0 64 20" version="1.1" xmlns="http://www.w3.org/2000/svg" xmlns:xlink="http://www.w3.org/1999/xlink">
    <!-- Generator: Sketch 44.1 (41455) - http://www.bohemiancoding.com/sketch -->
    <desc>Created with Sketch.</desc>
    <defs></defs>
    <g id="Style-guide" stroke="none" stroke-width="1" fill="none" fill-rule="evenodd">
        <g id="icons" transform="translate(-297.000000, -299.000000)" fill-rule="nonzero">
            <g id="Icons" transform="translate(39.000000, 40.000000)">
                <g id="pay" transform="translate(1.000000, 254.000000)">
                    <g id="Group-2" transform="translate(136.000000, 1.000000)">
                        <g id="discover" transform="translate(121.000000, 4.000000)">
                            <ellipse id="Oval" fill="#F26E21" cx="34.021376" cy="5.29847458" rx="5.32138667" ry="5.28474576"></ellipse>
                            <g id="Group" fill="#0B161F">
                                <path d="M5.360128,7.82881356 C4.73309867,8.38627119 3.923968,8.6279661 2.63901867,8.6279661 L2.105856,8.6279661 L2.105856,1.99305085 L2.63901867,1.99305085 C3.92379733,1.99305085 4.70101333,2.21881356 5.360128,2.80474576 C6.047232,3.40661017 6.45717333,4.33830508 6.45717333,5.30101695 C6.45717333,6.26423729 6.047232,7.22881356 5.360128,7.82881356 L5.360128,7.82881356 Z M3.03752533,0.293898305 L0.117930667,0.293898305 L0.117930667,10.3255932 L3.022848,10.3255932 C4.56448,10.3255932 5.67876267,9.96661017 6.656512,9.16762712 C7.816192,8.22016949 8.50466133,6.79135593 8.50466133,5.31423729 C8.50449067,2.35254237 6.25800533,0.293898305 3.03752533,0.293898305 L3.03752533,0.293898305 Z" id="Shape"></path>
                                <polyline id="Shape" points="9.4208 10.3255932 11.4056533 10.3255932 11.4056533 0.293898305 9.4208 0.293898305 9.4208 10.3255932"></polyline>
                                <path d="M16.264704,4.14220339 C15.071744,3.70644068 14.720512,3.41983051 14.720512,2.88084746 C14.720512,2.24847458 15.345664,1.76711864 16.2020693,1.76711864 C16.7978667,1.76711864 17.2858027,2.00745763 17.8075307,2.57762712 L18.8439893,1.24067797 C17.989632,0.502542373 16.9664853,0.126949153 15.8503253,0.126949153 C14.0494507,0.126949153 12.6738773,1.36050847 12.6738773,2.9979661 C12.6738773,4.38372881 13.3143893,5.09016949 15.1790933,5.75355932 C15.9581867,6.02305085 16.3541333,6.20254237 16.5533013,6.32491525 C16.9499307,6.58118644 17.1497813,6.94067797 17.1497813,7.36186441 C17.1497813,8.17559322 16.4927147,8.77610169 15.6055893,8.77610169 C14.65856,8.77610169 13.8955093,8.31067797 13.436928,7.4379661 L12.155904,8.65745763 C13.070336,9.97915254 14.170112,10.5683051 15.6834133,10.5683051 C17.7447253,10.5683051 19.1950507,9.21237288 19.1950507,7.27305085 C19.195904,5.67762712 18.5253547,4.95525424 16.264704,4.14220339" id="Shape"></path>
                                <path d="M19.8217387,5.31423729 C19.8217387,8.26576271 22.1743787,10.5520339 25.1987627,10.5520339 C26.0544853,10.5520339 26.786304,10.3852542 27.6886187,9.96661017 L27.6886187,7.66271186 C26.8936533,8.4459322 26.1905067,8.76118644 25.2893867,8.76118644 C23.2886613,8.76118644 21.8678613,7.33169492 21.8678613,5.30033898 C21.8678613,3.37559322 23.3340587,1.85542373 25.1987627,1.85542373 C26.1439147,1.85542373 26.8629333,2.18576271 27.6886187,2.98372881 L27.6886187,0.681525424 C26.8189013,0.246440678 26.0992,0.0669491525 25.2434773,0.0669491525 C22.2354773,0.0676271186 19.8217387,2.39949153 19.8217387,5.31423729" id="Shape"></path>
                                <polyline id="Shape" points="43.7855573 7.03237288 41.0663253 0.293898305 38.897664 0.293898305 43.2216747 10.5825424 44.2893653 10.5825424 48.6893227 0.293898305 46.5353387 0.293898305 43.7855573 7.03237288"></polyline>
                                <polyline id="Shape" points="49.5916373 10.3255932 55.2265387 10.3255932 55.2265387 8.6279661 51.5770027 8.6279661 51.5770027 5.91745763 55.0867627 5.91745763 55.0867627 4.21966102 51.5770027 4.21966102 51.5770027 1.99288136 55.2265387 1.99288136 55.2265387 0.293898305 49.5916373 0.293898305 49.5916373 10.3255932"></polyline>
                                <path d="M59.1040853,4.91152542 L58.5255253,4.91152542 L58.5255253,1.87118644 L59.1353173,1.87118644 C60.3748693,1.87118644 61.047296,2.38491525 61.047296,3.36084746 C61.047296,4.3679661 60.3748693,4.91152542 59.1040853,4.91152542 L59.1040853,4.91152542 Z M63.090176,3.25440678 C63.090176,1.37525424 61.77792,0.293898305 59.4853547,0.293898305 L56.5382827,0.293898305 L56.5382827,10.3255932 L58.5250133,10.3255932 L58.5250133,6.2940678 L58.7856213,6.2940678 L61.5328427,10.3255932 L63.9767893,10.3255932 L60.7679147,6.09932203 C62.2670507,5.79881356 63.090176,4.78983051 63.090176,3.25440678 L63.090176,3.25440678 Z" id="Shape"></path>
                            </g>
                            <polygon id="Shape" fill="#000000" points="14.6107733 19.649661 14.6107733 14.0059322 18.49088 18.0374576 18.49088 14.3647458 19.294208 14.3647458 19.294208 19.9710169 15.4141013 15.9489831 15.4141013 19.6488136 14.6107733 19.6488136"></polygon>
                            <polygon id="Shape" fill="#000000" points="23.5057493 15.1145763 21.3722453 15.1145763 21.3722453 16.3842373 23.4437973 16.3842373 23.4437973 17.1344068 21.3722453 17.1344068 21.3722453 18.9 23.5057493 18.9 23.5057493 19.649661 20.5694293 19.649661 20.5694293 14.3655932 23.5057493 14.3655932 23.5057493 15.1145763"></polygon>
                            <polygon id="Shape" fill="#000000" points="26.0282027 15.1145763 26.0282027 19.6491525 25.2248747 19.6491525 25.2248747 15.1145763 24.002048 15.1145763 24.002048 14.3649153 27.24864 14.3649153 27.24864 15.1145763"></polygon>
                            <polygon id="Shape" fill="#000000" points="28.5441707 14.3655932 29.929984 17.8974576 31.3782613 14.1088136 32.763392 17.8974576 34.2347093 14.3655932 35.1069867 14.3655932 32.7289173 19.9852542 31.3603413 16.2410169 29.9337387 19.9891525 27.6724053 14.3657627"></polygon>
                            <path d="M35.260928,16.9840678 C35.260928,16.2394915 35.5362133,15.6008475 36.084736,15.0674576 C36.6313813,14.5333898 37.2891307,14.2664407 38.0567893,14.2664407 C38.81472,14.2664407 39.46496,14.5354237 40.0069973,15.0737288 C40.5517653,15.6128814 40.8231253,16.2589831 40.8231253,17.0150847 C40.8231253,17.7742373 40.549888,18.4191525 40.0037547,18.9488136 C39.4545493,19.480339 38.79168,19.7466102 38.0151467,19.7466102 C37.3287253,19.7466102 36.7110827,19.51 36.1644373,19.0381356 C35.5623253,18.5150847 35.260928,17.8301695 35.260928,16.9840678 Z M36.0712533,16.9923729 C36.0712533,17.5757627 36.2692267,18.0552542 36.663808,18.4320339 C37.056512,18.8088136 37.510656,18.9964407 38.0258987,18.9964407 C38.5834667,18.9964407 39.0546773,18.8049153 39.4385067,18.4225424 C39.822336,18.0350847 40.013824,17.5632203 40.013824,17.0069492 C40.013824,16.4432203 39.8242133,15.9713559 39.4448213,15.5913559 C39.0679893,15.2083051 38.6018987,15.0167797 38.045696,15.0167797 C37.4920533,15.0167797 37.0245973,15.2083051 36.6440107,15.5913559 C36.2622293,15.9681356 36.0712533,16.4361017 36.0712533,16.9923729 Z" id="Shape" fill="#000000"></path>
                            <path d="M43.6355413,17.3976271 L45.2831573,19.649661 L44.3009707,19.649661 L42.781184,17.4871186 L42.636288,17.4871186 L42.636288,19.649661 L41.83296,19.649661 L41.83296,14.3655932 L42.7736747,14.3655932 C43.4773333,14.3655932 43.984384,14.4969492 44.2973867,14.7594915 C44.642304,15.0511864 44.8146773,15.4367797 44.8146773,15.9162712 C44.8146773,16.2905085 44.706816,16.6120339 44.49024,16.8808475 C44.2740053,17.149661 43.9898453,17.3227119 43.6355413,17.3976271 Z M42.6366293,16.7918644 L42.890752,16.7918644 C43.6512427,16.7918644 44.032,16.5032203 44.032,15.9261017 C44.032,15.3850847 43.6621653,15.1149153 42.9221547,15.1149153 L42.6366293,15.1149153 L42.6366293,16.7918644 L42.6366293,16.7918644 Z" id="Shape" fill="#000000"></path>
                            <polygon id="Shape" fill="#000000" points="46.885888 16.4735593 48.956928 14.3654237 50.029056 14.3654237 47.6235093 16.7583051 50.0432213 19.649661 48.9678507 19.649661 47.0514347 17.2986441 46.8860587 17.4635593 46.8860587 19.649661 46.0827307 19.649661 46.0827307 14.3655932 46.8860587 14.3655932 46.8860587 16.4735593"></polygon>
                        </g>
                    </g>
                </g>
            </g>
        </g>
    </g>
</svg>