<svg width="35px" height="28px" viewBox="0 0 35 28" version="1.1" xmlns="http://www.w3.org/2000/svg" xmlns:xlink="http://www.w3.org/1999/xlink">
    <!-- Generator: Sketch 44.1 (41455) - http://www.bohemiancoding.com/sketch -->
    <desc>Created with Sketch.</desc>
    <defs></defs>
    <g id="Style-guide" stroke="none" stroke-width="1" fill="none" fill-rule="evenodd">
        <g id="icons" transform="translate(-176.000000, -295.000000)" fill-rule="nonzero">
            <g id="Icons" transform="translate(39.000000, 40.000000)">
                <g id="pay" transform="translate(1.000000, 254.000000)">
                    <g id="Group-2" transform="translate(136.000000, 1.000000)">
                        <g id="mC">
                            <path d="M6.4605,27.0882353 L6.4605,25.3235294 C6.48784867,25.0247902 6.38275432,24.7290727 6.17285478,24.514145 C5.96295525,24.2992173 5.66925804,24.1865901 5.369,24.2058824 C4.97080104,24.1900948 4.59225143,24.3788035 4.366,24.7058824 C4.16908901,24.3771485 3.80544631,24.1845411 3.422,24.2058824 C3.08558552,24.1912575 2.76425925,24.3459166 2.5665,24.6176471 L2.5665,24.2647059 L2.006,24.2647059 L2.006,27.0882353 L2.5665,27.0882353 L2.5665,25.4705882 C2.54290001,25.2745372 2.60874281,25.0782692 2.74589898,24.9358255 C2.88305515,24.7933819 3.07706165,24.7197831 3.2745,24.7352941 C3.6875,24.7352941 3.9235,25 3.9235,25.4705882 L3.9235,27.0882353 L4.484,27.0882353 L4.484,25.4705882 C4.46040001,25.2745372 4.52624281,25.0782692 4.66339898,24.9358255 C4.80055515,24.7933819 4.99456165,24.7197831 5.192,24.7352941 C5.605,24.7352941 5.841,25 5.841,25.4705882 L5.841,27.0882353 L6.4605,27.0882353 Z M15.6645,24.2941176 L14.632,24.2941176 L14.632,23.4411765 L14.0715,23.4411765 L14.0715,24.2941176 L13.4815,24.2941176 L13.4815,24.7941176 L14.0715,24.7941176 L14.0715,26.1176471 C14.0715,26.7647059 14.3075,27.1470588 15.0155,27.1470588 C15.2841731,27.1417639 15.5474777,27.0710862 15.7825,26.9411765 L15.6055,26.4411765 C15.4464707,26.5403213 15.262034,26.5914005 15.0745,26.5882353 C14.9489042,26.5985607 14.8254527,26.551149 14.7392611,26.4594862 C14.6530694,26.3678234 14.6135706,26.2419414 14.632,26.1176471 L14.632,24.7647059 L15.6645,24.7647059 L15.6645,24.2941176 Z M20.9155,24.2058824 C20.6050885,24.1994972 20.314022,24.3557565 20.1485,24.6176471 L20.1485,24.2647059 L19.588,24.2647059 L19.588,27.0882353 L20.1485,27.0882353 L20.1485,25.5 C20.1485,25.0294118 20.3845,24.7352941 20.768,24.7352941 C20.8976448,24.7404662 21.026291,24.7601988 21.1515,24.7941176 L21.3285,24.2647059 C21.193279,24.2307341 21.0548528,24.2110181 20.9155,24.2058824 Z M12.98,24.5 C12.6346377,24.2894397 12.2338736,24.186987 11.8295,24.2058824 C11.1215,24.2058824 10.679,24.5294118 10.679,25.0882353 C10.679,25.5588235 11.0035,25.8235294 11.623,25.9117647 L11.918,25.9411765 C12.2425,26 12.449,26.1176471 12.449,26.2647059 C12.449,26.4705882 12.213,26.6176471 11.7705,26.6176471 C11.4321105,26.6246735 11.1006651,26.5214066 10.8265,26.3235294 L10.5315,26.7647059 C10.889884,27.000964 11.3114046,27.1239669 11.741,27.1176471 C12.567,27.1176471 13.0095,26.7352941 13.0095,26.2058824 C13.0095,25.6764706 12.6555,25.4705882 12.036,25.3823529 L11.741,25.3529412 C11.4755,25.3235294 11.2395,25.2352941 11.2395,25.0588235 C11.2395,24.8823529 11.4755,24.7058824 11.8,24.7058824 C12.1086384,24.7193037 12.4106398,24.7995965 12.685,24.9411765 L12.98,24.5 Z M21.5645,25.6764706 C21.5400872,26.0734574 21.6876319,26.4618168 21.9697148,26.743056 C22.2517977,27.0242952 22.6413222,27.1713986 23.0395,27.1470588 C23.4023917,27.1660817 23.7595548,27.0508746 24.0425,26.8235294 L23.7475,26.3823529 C23.5391007,26.5517939 23.2789043,26.6451844 23.01,26.6470588 C22.5175177,26.6082108 22.137738,26.198426 22.137738,25.7058824 C22.137738,25.2133387 22.5175177,24.8035539 23.01,24.7647059 C23.2789043,24.7665803 23.5391007,24.8599708 23.7475,25.0294118 L24.0425,24.5882353 C23.7595548,24.3608901 23.4023917,24.245683 23.0395,24.2647059 C22.6462216,24.2176471 22.2525081,24.3489388 21.966766,24.6224307 C21.681024,24.8959225 21.5333848,25.282775 21.5645,25.6764706 L21.5645,25.6764706 Z M17.582,24.2058824 C16.756,24.2058824 16.1955,24.7941176 16.1955,25.6764706 C16.1699508,26.0685769 16.3129774,26.4529956 16.5888274,26.7336333 C16.8646774,27.014271 17.2472815,27.1646059 17.641,27.1470588 C18.057247,27.1556799 18.4636906,27.0206039 18.7915,26.7647059 L18.4965,26.3529412 C18.2595272,26.5360325 17.9701924,26.6390572 17.6705,26.6470588 C17.2360585,26.6635528 16.8626476,26.3426097 16.815,25.9117647 L18.9095,25.9117647 L18.9095,25.6764706 C18.9095,24.7941176 18.3785,24.2058824 17.582,24.2058824 L17.582,24.2058824 Z M17.582,24.7352941 C17.7750607,24.726423 17.9633099,24.7969548 18.1027293,24.9303971 C18.2421486,25.0638393 18.3205136,25.2484916 18.3195,25.4411765 L16.7855,25.4411765 C16.812384,25.0281495 17.1674391,24.713489 17.582,24.7352941 L17.582,24.7352941 Z M9.9415,25.6764706 L9.9415,24.2647059 L9.381,24.2647059 L9.381,24.6176471 C9.16189634,24.3397406 8.82048508,24.1860161 8.4665,24.2058824 C7.65187999,24.2058824 6.9915,24.8642871 6.9915,25.6764706 C6.9915,26.488654 7.65187999,27.1470588 8.4665,27.1470588 C8.82048508,27.1669251 9.16189634,27.0132005 9.381,26.7352941 L9.381,27.0882353 L9.9415,27.0882353 L9.9415,25.6764706 Z M7.6405,25.6764706 C7.67255773,25.1981273 8.081838,24.8328257 8.56222631,24.8537872 C9.04261462,24.8747487 9.41832028,25.2743027 9.40834036,25.7536094 C9.39836045,26.232916 9.00634697,26.6165804 8.5255,26.6176471 C8.2784908,26.6236462 8.04064122,26.5243222 7.87165135,26.3446055 C7.70266149,26.1648888 7.61857589,25.9218423 7.6405,25.6764706 L7.6405,25.6764706 Z M29.441,24.2058824 C29.1305885,24.1994972 28.839522,24.3557565 28.674,24.6176471 L28.674,24.2647059 L28.1135,24.2647059 L28.1135,27.0882353 L28.674,27.0882353 L28.674,25.5 C28.674,25.0294118 28.91,24.7352941 29.2935,24.7352941 C29.4231448,24.7404662 29.551791,24.7601988 29.677,24.7941176 L29.854,24.2647059 C29.718779,24.2307341 29.5803528,24.2110181 29.441,24.2058824 L29.441,24.2058824 Z M27.258,25.6764706 L27.258,24.2647059 L26.6975,24.2647059 L26.6975,24.6176471 C26.4783963,24.3397406 26.1369851,24.1860161 25.783,24.2058824 C24.96838,24.2058824 24.308,24.8642871 24.308,25.6764706 C24.308,26.488654 24.96838,27.1470588 25.783,27.1470588 C26.1369851,27.1669251 26.4783963,27.0132005 26.6975,26.7352941 L26.6975,27.0882353 L27.258,27.0882353 L27.258,25.6764706 Z M24.9865,25.6764706 C25.0185577,25.1981273 25.427838,24.8328257 25.9082263,24.8537872 C26.3886146,24.8747487 26.7643203,25.2743027 26.7543404,25.7536094 C26.7443605,26.232916 26.352347,26.6165804 25.8715,26.6176471 C25.311,26.6470588 24.9865,26.2058824 24.9865,25.6764706 L24.9865,25.6764706 Z M32.981,25.6764706 L32.981,23.1470588 L32.4205,23.1470588 L32.4205,24.6176471 C32.2013963,24.3397406 31.8599851,24.1860161 31.506,24.2058824 C30.69138,24.2058824 30.031,24.8642871 30.031,25.6764706 C30.031,26.488654 30.69138,27.1470588 31.506,27.1470588 C31.8599851,27.1669251 32.2013963,27.0132005 32.4205,26.7352941 L32.4205,27.0882353 L32.981,27.0882353 L32.981,25.6764706 Z M30.68,25.6764706 C30.7120577,25.1981273 31.121338,24.8328257 31.6017263,24.8537872 C32.0821146,24.8747487 32.4578203,25.2743027 32.4478404,25.7536094 C32.4378605,26.232916 32.045847,26.6165804 31.565,26.6176471 C31.3179908,26.6236462 31.0801412,26.5243222 30.9111514,26.3446055 C30.7421615,26.1648888 30.6580759,25.9218423 30.68,25.6764706 Z" id="_Compound_Path_" fill="#181818"></path>
                            <g id="_Group_" transform="translate(0.000000, 0.470588)">
                                <rect id="Rectangle-path" fill="#FF5F00" x="12.331" y="2.38235294" width="10.2365" height="16.6470588"></rect>
                                <path d="M13.393,10.7058824 C13.3938918,7.46146419 14.8825697,4.39550987 17.4345,2.38235294 C13.7772545,-0.484570801 8.67417712,-0.644469702 4.8435845,1.98783148 C1.01299187,4.62013266 -0.653235503,9.43175276 0.732471443,13.8596291 C2.11817839,18.2875055 6.2331842,21.3006915 10.8855,21.2941176 C13.2619661,21.2957853 15.5694591,20.4978325 17.4345,19.0294118 C14.8825697,17.0162548 13.3938918,13.9503005 13.393,10.7058824 L13.393,10.7058824 Z" id="_Path_" fill="#EB001B"></path>
                                <path d="M34.633,10.7058824 C34.6284814,14.7543637 32.3088931,18.445893 28.6570992,20.2162822 C25.0053054,21.9866715 20.6606244,21.5259793 17.464,19.0294118 C20.016599,17.0167977 21.5054209,13.9504867 21.5054209,10.7058824 C21.5054209,7.461278 20.016599,4.394967 17.464,2.38235294 C20.6606244,-0.114214596 25.0053054,-0.574906807 28.6570992,1.19548246 C32.3088931,2.96587173 34.6284814,6.65740103 34.633,10.7058824 L34.633,10.7058824 Z" id="Shape" fill="#F79E1B"></path>
                            </g>
                        </g>
                    </g>
                </g>
            </g>
        </g>
    </g>
</svg>