<svg width="116px" height="30px" viewBox="0 0 116 30" version="1.1" xmlns="http://www.w3.org/2000/svg" xmlns:xlink="http://www.w3.org/1999/xlink">
    <!-- Generator: Sketch 44.1 (41455) - http://www.bohemiancoding.com/sketch -->
    <desc>Created with Sketch.</desc>
    <defs></defs>
    <g id="Style-guide" stroke="none" stroke-width="1" fill="none" fill-rule="evenodd">
        <g id="icons" transform="translate(-40.000000, -294.000000)" fill-rule="nonzero">
            <g id="Icons" transform="translate(39.000000, 40.000000)">
                <g id="pay" transform="translate(1.000000, 254.000000)">
                    <g id="paypal">
                        <path d="M89.6698413,7.89230769 L83.4095238,7.89230769 C83.0412698,7.89230769 82.6730159,8.26153846 82.4888889,8.63076923 L79.9111111,24.8769231 C79.9111111,25.2461538 80.0952381,25.4307692 80.4634921,25.4307692 L83.7777778,25.4307692 C84.1460317,25.4307692 84.3301587,25.2461538 84.3301587,24.8769231 L85.0666667,20.2615385 C85.0666667,19.8923077 85.4349206,19.5230769 85.9873016,19.5230769 L88.0126984,19.5230769 C92.247619,19.5230769 94.6412698,17.4923077 95.1936508,13.4307692 C95.5619048,11.7692308 95.1936508,10.2923077 94.4571429,9.36923077 C93.352381,8.44615385 91.6952381,7.89230769 89.6698413,7.89230769 M90.4063492,13.9846154 C90.0380952,16.2 88.3809524,16.2 86.7238095,16.2 L85.6190476,16.2 L86.3555556,11.9538462 C86.3555556,11.7692308 86.5396825,11.5846154 86.9079365,11.5846154 L87.2761905,11.5846154 C88.3809524,11.5846154 89.4857143,11.5846154 90.0380952,12.3230769 C90.4063492,12.5076923 90.4063492,13.0615385 90.4063492,13.9846154" id="Shape" fill="#139AD6"></path>
                        <g id="Group" transform="translate(34.753968, 7.846154)" fill="#263B80">
                            <path d="M9.8047619,0.0461538462 L3.54444444,0.0461538462 C3.17619048,0.0461538462 2.80793651,0.415384615 2.62380952,0.784615385 L0.046031746,17.0307692 C0.046031746,17.4 0.23015873,17.5846154 0.598412698,17.5846154 L3.54444444,17.5846154 C3.91269841,17.5846154 4.28095238,17.2153846 4.46507937,16.8461538 L5.2015873,12.4153846 C5.2015873,12.0461538 5.56984127,11.6769231 6.12222222,11.6769231 L8.14761905,11.6769231 C12.3825397,11.6769231 14.7761905,9.64615385 15.3285714,5.58461538 C15.6968254,3.92307692 15.3285714,2.44615385 14.5920635,1.52307692 C13.4873016,0.6 12.0142857,0.0461538462 9.8047619,0.0461538462 M10.5412698,6.13846154 C10.1730159,8.35384615 8.51587302,8.35384615 6.85873016,8.35384615 L5.93809524,8.35384615 L6.67460317,4.10769231 C6.67460317,3.92307692 6.85873016,3.73846154 7.22698413,3.73846154 L7.5952381,3.73846154 C8.7,3.73846154 9.8047619,3.73846154 10.3571429,4.47692308 C10.5412698,4.66153846 10.7253968,5.21538462 10.5412698,6.13846154" id="Shape"></path>
                            <path d="M28.7698413,5.95384615 L25.8238095,5.95384615 C25.6396825,5.95384615 25.2714286,6.13846154 25.2714286,6.32307692 L25.0873016,7.24615385 L24.9031746,6.87692308 C24.1666667,5.95384615 22.8777778,5.58461538 21.4047619,5.58461538 C18.0904762,5.58461538 15.1444444,8.16923077 14.5920635,11.6769231 C14.2238095,13.5230769 14.7761905,15.1846154 15.6968254,16.2923077 C16.6174603,17.4 17.9063492,17.7692308 19.5634921,17.7692308 C22.3253968,17.7692308 23.7984127,16.1076923 23.7984127,16.1076923 L23.6142857,17.0307692 C23.6142857,17.4 23.7984127,17.5846154 24.1666667,17.5846154 L26.9285714,17.5846154 C27.2968254,17.5846154 27.6650794,17.2153846 27.8492063,16.8461538 L29.5063492,6.50769231 C29.3222222,6.32307692 28.9539683,5.95384615 28.7698413,5.95384615 M24.5349206,11.8615385 C24.1666667,13.5230769 22.8777778,14.8153846 21.0365079,14.8153846 C20.115873,14.8153846 19.3793651,14.4461538 19.0111111,14.0769231 C18.6428571,13.5230769 18.4587302,12.7846154 18.4587302,11.8615385 C18.6428571,10.2 20.115873,8.90769231 21.7730159,8.90769231 C22.6936508,8.90769231 23.2460317,9.27692308 23.7984127,9.64615385 C24.3507937,10.2 24.5349206,11.1230769 24.5349206,11.8615385" id="Shape"></path>
                        </g>
                        <path d="M108.450794,13.8 L105.504762,13.8 C105.320635,13.8 104.952381,13.9846154 104.952381,14.1692308 L104.768254,15.0923077 L104.584127,14.7230769 C103.847619,13.8 102.55873,13.4307692 101.085714,13.4307692 C97.7714286,13.4307692 94.8253968,16.0153846 94.2730159,19.5230769 C93.9047619,21.3692308 94.4571429,23.0307692 95.3777778,24.1384615 C96.2984127,25.2461538 97.5873016,25.6153846 99.2444444,25.6153846 C102.006349,25.6153846 103.479365,23.9538462 103.479365,23.9538462 L103.295238,24.8769231 C103.295238,25.2461538 103.479365,25.4307692 103.847619,25.4307692 L106.609524,25.4307692 C106.977778,25.4307692 107.346032,25.0615385 107.530159,24.6923077 L109.187302,14.3538462 C109.003175,14.1692308 108.819048,13.8 108.450794,13.8 M104.215873,19.7076923 C103.847619,21.3692308 102.55873,22.6615385 100.71746,22.6615385 C99.7968254,22.6615385 99.0603175,22.2923077 98.6920635,21.9230769 C98.3238095,21.3692308 98.1396825,20.6307692 98.1396825,19.7076923 C98.3238095,18.0461538 99.7968254,16.7538462 101.453968,16.7538462 C102.374603,16.7538462 102.926984,17.1230769 103.479365,17.4923077 C104.215873,18.0461538 104.4,18.9692308 104.215873,19.7076923" id="Shape" fill="#139AD6"></path>
                        <path d="M79.5428571,13.8 L76.4126984,13.8 C76.0444444,13.8 75.8603175,13.9846154 75.6761905,14.1692308 L71.6253968,20.4461538 L69.784127,14.5384615 C69.6,14.1692308 69.415873,13.9846154 68.8634921,13.9846154 L65.9174603,13.9846154 C65.5492063,13.9846154 65.3650794,14.3538462 65.3650794,14.7230769 L68.6793651,24.5076923 L65.5492063,28.9384615 C65.3650794,29.3076923 65.5492063,29.8615385 65.9174603,29.8615385 L68.8634921,29.8615385 C69.231746,29.8615385 69.415873,29.6769231 69.6,29.4923077 L79.7269841,14.9076923 C80.2793651,14.3538462 79.9111111,13.8 79.5428571,13.8" id="Shape" fill="#263B80"></path>
                        <path d="M111.949206,8.44615385 L109.371429,25.0615385 C109.371429,25.4307692 109.555556,25.6153846 109.92381,25.6153846 L112.501587,25.6153846 C112.869841,25.6153846 113.238095,25.2461538 113.422222,24.8769231 L116,8.63076923 C116,8.26153846 115.815873,8.07692308 115.447619,8.07692308 L112.501587,8.07692308 C112.31746,7.89230769 112.133333,8.07692308 111.949206,8.44615385" id="Shape" fill="#139AD6"></path>
                        <path d="M21.1746032,2.35384615 C19.8857143,0.876923077 17.4920635,0.138461538 14.1777778,0.138461538 L4.97142857,0.138461538 C4.41904762,0.138461538 3.86666667,0.692307692 3.68253968,1.24615385 L0,25.4307692 C0,25.9846154 0.368253968,26.3538462 0.736507937,26.3538462 L6.44444444,26.3538462 L7.91746032,17.3076923 L7.91746032,17.6769231 C8.1015873,17.1230769 8.65396825,16.5692308 9.20634921,16.5692308 L11.968254,16.5692308 C17.3079365,16.5692308 21.3587302,14.3538462 22.647619,8.26153846 L22.647619,7.70769231 C22.4634921,7.70769231 22.4634921,7.70769231 22.647619,7.70769231 C22.831746,5.30769231 22.4634921,3.83076923 21.1746032,2.35384615" id="Shape" fill="#263B80"></path>
                        <path d="M22.4634921,7.70769231 L22.4634921,7.70769231 L22.4634921,8.26153846 C21.1746032,14.5384615 17.1238095,16.5692308 11.784127,16.5692308 L9.02222222,16.5692308 C8.46984127,16.5692308 7.91746032,17.1230769 7.73333333,17.6769231 L5.89206349,28.9384615 C5.89206349,29.3076923 6.07619048,29.6769231 6.62857143,29.6769231 L11.415873,29.6769231 C11.968254,29.6769231 12.5206349,29.3076923 12.5206349,28.7538462 L12.5206349,28.5692308 L13.4412698,22.8461538 L13.4412698,22.4769231 C13.4412698,21.9230769 13.9936508,21.5538462 14.5460317,21.5538462 L15.2825397,21.5538462 C19.8857143,21.5538462 23.568254,19.7076923 24.4888889,14.1692308 C24.8571429,11.9538462 24.6730159,9.92307692 23.568254,8.63076923 C23.384127,8.26153846 23.015873,7.89230769 22.4634921,7.70769231" id="Shape" fill="#139AD6"></path>
                        <path d="M21.1746032,7.15384615 C20.9904762,7.15384615 20.8063492,6.96923077 20.6222222,6.96923077 C20.4380952,6.96923077 20.2539683,6.96923077 20.0698413,6.78461538 C19.3333333,6.6 18.5968254,6.6 17.6761905,6.6 L10.4952381,6.6 C10.3111111,6.6 10.1269841,6.6 9.94285714,6.78461538 C9.57460317,6.96923077 9.39047619,7.33846154 9.39047619,7.70769231 L7.91746032,17.3076923 L7.91746032,17.6769231 C8.1015873,17.1230769 8.65396825,16.5692308 9.20634921,16.5692308 L11.968254,16.5692308 C17.3079365,16.5692308 21.3587302,14.3538462 22.647619,8.26153846 C22.647619,8.07692308 22.647619,7.89230769 22.831746,7.70769231 C22.4634921,7.52307692 22.2793651,7.33846154 21.9111111,7.33846154 C21.3587302,7.15384615 21.3587302,7.15384615 21.1746032,7.15384615" id="Shape" fill="#232C65"></path>
                    </g>
                </g>
            </g>
        </g>
    </g>
</svg>