<svg width="66px" height="20px" viewBox="0 0 66 20" version="1.1" xmlns="http://www.w3.org/2000/svg" xmlns:xlink="http://www.w3.org/1999/xlink">
    <!-- Generator: Sketch 44.1 (41455) - http://www.bohemiancoding.com/sketch -->
    <desc>Created with Sketch.</desc>
    <defs></defs>
    <g id="Style-guide" stroke="none" stroke-width="1" fill="none" fill-rule="evenodd">
        <g id="icons" transform="translate(-221.000000, -299.000000)" fill-rule="nonzero">
            <g id="Icons" transform="translate(39.000000, 40.000000)">
                <g id="pay" transform="translate(1.000000, 254.000000)">
                    <g id="Group-2" transform="translate(136.000000, 1.000000)">
                        <g id="visa" transform="translate(45.000000, 4.000000)">
                            <polygon id="Shape" fill="#293688" points="24.2 19.5294118 27.552381 0.705882353 32.7904762 0.705882353 29.5428571 19.5294118"></polygon>
                            <path d="M48.5047619,0.91503268 C47.4571429,0.496732026 45.7809524,0.0784313725 43.6857143,0.0784313725 C38.447619,0.0784313725 34.6761905,2.69281046 34.6761905,6.45751634 C34.6761905,9.28104575 37.2952381,10.745098 39.3904762,11.6862745 C41.4857143,12.627451 42.1142857,13.254902 42.1142857,14.0915033 C42.1142857,15.3464052 40.4380952,15.9738562 38.9714286,15.9738562 C36.8761905,15.9738562 35.7238095,15.6601307 33.9428571,14.9281046 L33.2095238,14.6143791 L32.4761905,18.9019608 C33.7333333,19.4248366 36.0380952,19.9477124 38.447619,19.9477124 C44,19.9477124 47.6666667,17.3333333 47.6666667,13.3594771 C47.6666667,11.1633987 46.3047619,9.49019608 43.1619048,8.13071895 C41.2761905,7.18954248 40.1238095,6.66666667 40.1238095,5.7254902 C40.1238095,4.88888889 41.0666667,4.05228758 43.1619048,4.05228758 C44.9428571,4.05228758 46.2,4.36601307 47.1428571,4.78431373 L47.6666667,4.99346405 L48.5047619,0.91503268 L48.5047619,0.91503268 Z" id="Shape" fill="#293688"></path>
                            <path d="M57.5142857,0.705882353 C56.2571429,0.705882353 55.3142857,0.810457516 54.7904762,2.06535948 L46.9333333,19.5294118 L52.5904762,19.5294118 L53.6380952,16.3921569 L60.3428571,16.3921569 L60.9714286,19.5294118 L66,19.5294118 L61.6,0.705882353 L57.5142857,0.705882353 L57.5142857,0.705882353 Z M55.1047619,13.254902 C55.4190476,12.3137255 57.2,7.7124183 57.2,7.7124183 C57.2,7.7124183 57.6190476,6.5620915 57.9333333,5.83006536 L58.247619,7.60784314 C58.247619,7.60784314 59.2952381,12.3137255 59.5047619,13.3594771 L55.1047619,13.3594771 L55.1047619,13.254902 Z" id="Shape" fill="#293688"></path>
                            <path d="M14.5619048,13.8823529 L14.0380952,11.1633987 C13.0952381,8.02614379 10.0571429,4.5751634 6.7047619,2.90196078 L11.4190476,19.6339869 L17.0761905,19.6339869 L25.5619048,0.810457516 L19.9047619,0.810457516 L14.5619048,13.8823529 Z" id="Shape" fill="#293688"></path>
                            <path d="M0,0.705882353 L0.942857143,0.91503268 C7.64761905,2.48366013 12.2571429,6.45751634 14.0380952,11.1633987 L12.152381,2.2745098 C11.8380952,1.01960784 10.8952381,0.705882353 9.74285714,0.705882353 L0,0.705882353 L0,0.705882353 Z" id="Shape" fill="#FFBC00"></path>
                        </g>
                    </g>
                </g>
            </g>
        </g>
    </g>
</svg>