<?xml version="1.0" encoding="UTF-8"?>
<svg width="20px" height="20px" viewBox="0 0 20 20" version="1.1" xmlns="http://www.w3.org/2000/svg" xmlns:xlink="http://www.w3.org/1999/xlink">
    <defs></defs>
    <g id="Style-guide" stroke="none" stroke-width="1" fill="none" fill-rule="evenodd">
        <g id="icons" transform="translate(-40.000000, -90.000000)" fill="#181818">
            <g id="Icons" transform="translate(39.000000, 40.000000)">
                <path d="M8,54 L7.00002368,53.9931178 C7.01564414,51.7234756 8.45465975,50 11,50 C13.5728062,50 15.0100183,51.7605206 15.0000124,54 L21,54 L21,70 L1,70 L1,54 L8,54 Z M14,54 L13.0000153,53.9944704 C13.0067139,52.7830747 12.3683869,52 11,52 C9.64768534,52 9.01089209,52.7596845 9.00003013,54 L14,54 Z M8,54 L8.99997632,54.0068822 C8.99999212,54.0045865 9.00001005,54.0022924 9.00003013,54 L8,54 Z M15.0000126,54 L14,54 L14.9999847,54.0055296 C14.9999949,54.0036861 15.0000041,54.0018429 15.0000124,54 Z M19,68 L19,56 L3,56 L3,68 L19,68 Z M6,58 C6.55275,58 7,58.44725 7,59 C7,59.55275 6.55275,60 6,60 C5.44725,60 5,59.55275 5,59 C5,58.44725 5.44725,58 6,58 Z M16,58 C16.55275,58 17,58.44725 17,59 C17,59.55275 16.55275,60 16,60 C15.44725,60 15,59.55275 15,59 C15,58.44725 15.44725,58 16,58 Z" id="bag"></path>
            </g>
        </g>
    </g>
</svg>