<?xml version="1.0" encoding="UTF-8"?>
<svg width="133px" height="92px" viewBox="0 0 133 92" version="1.1" xmlns="http://www.w3.org/2000/svg" xmlns:xlink="http://www.w3.org/1999/xlink">
    <defs></defs>
    <g id="Website" stroke="none" stroke-width="1" fill="none" fill-rule="evenodd">
        <g id="Checkout-step-2.-biling-info" transform="translate(-695.000000, -196.000000)">
            <g id="Group-3" transform="translate(676.000000, 177.000000)">
                <g id="Group-9">
                    <g id="shutterstock_454049803" transform="translate(20.000000, 20.000000)">
                        <path d="M127,90 L4,90 C1.9310792,90 0,88.067745 0,86 L0,4 C0,1.93225502 1.9310792,0 4,0 L127,0 C129.069204,0 131,1.93225502 131,4 L131,86 C131,88.067745 129.069204,90 127,90" id="Fill-15" stroke="#FFFFFF" stroke-width="2" opacity="0.200000003"></path>
                        <polygon id="Fill-16" fill="#FFFFFF" opacity="0.200000003" points="1 35 130 35 130 14 1 14"></polygon>
                        <polygon id="Fill-17" stroke="#FFFFFF" stroke-width="2" opacity="0.200000003" points="6 56 126 56 126 40 6 40"></polygon>
                        <rect id="Rectangle-2" fill="#FFFFFF" opacity="0.200000003" x="6" y="64" width="16" height="9"></rect>
                        <path d="M106,52 L100,52 C100.120177,52 100,51.9415615 100,52 L100,44 C100,44.0584385 100.120177,44 100,44 L106,44 C105.879823,44 106,44.0584385 106,44 L106,52 C106,51.9415615 105.879823,52 106,52" id="Fill-61" fill="#FFF6A8"></path>
                        <path d="M114,52 L108,52 C108.119667,52 108,51.9415615 108,52 L108,44 C108,44.0584385 108.119667,44 108,44 L114,44 C113.880333,44 114,44.0584385 114,44 L114,52 C114,51.9415615 113.880333,52 114,52" id="Fill-62" fill="#FFF6A8"></path>
                        <path d="M122,52 L116,52 C116.120177,52 116,51.9415615 116,52 L116,44 C116,44.0584385 116.120177,44 116,44 L122,44 C121.879823,44 122,44.0584385 122,44 L122,52 C122,51.9415615 121.879823,52 122,52" id="Fill-63" fill="#FFF6A8"></path>
                        <polygon id="Rectangle-3" fill="#FFFFFF" opacity="0.200000003" points="34 61 64 61 64 64 34 64"></polygon>
                        <polygon id="Rectangle-3-Copy-5" fill="#FFFFFF" opacity="0.200000003" points="66 61 81 61 81 64 66 64"></polygon>
                        <polygon id="Rectangle-3-Copy-6" fill="#FFFFFF" opacity="0.200000003" points="83 61 102 61 102 64 83 64"></polygon>
                        <polygon id="Rectangle-3-Copy" fill="#FFFFFF" opacity="0.200000003" points="34 67 61 67 61 70 34 70"></polygon>
                        <polygon id="Rectangle-3-Copy-3" fill="#FFFFFF" opacity="0.200000003" points="63 67 70 67 70 70 63 70"></polygon>
                        <polygon id="Rectangle-3-Copy-4" fill="#FFFFFF" opacity="0.200000003" points="72 67 95 67 95 70 72 70"></polygon>
                        <polygon id="Rectangle-3-Copy-2" fill="#FFFFFF" opacity="0.200000003" points="34 73 105 73 105 76 34 76"></polygon>
                    </g>
                </g>
            </g>
        </g>
    </g>
</svg>