<?xml version="1.0" encoding="UTF-8"?>
<svg width="21px" height="21px" viewBox="0 0 21 21" version="1.1" xmlns="http://www.w3.org/2000/svg" xmlns:xlink="http://www.w3.org/1999/xlink">
	<defs></defs>
	<g id="Style-guide" stroke="none" stroke-width="1" fill="none" fill-rule="evenodd">
		<g id="icons" transform="translate(-39.000000, -237.000000)" stroke="#181818" stroke-width="2">
			<g id="Icons" transform="translate(39.000000, 40.000000)">
				<path d="M10.4998924,216.669362 C8.87891205,215.438425 6.98153399,213.789802 5.26963205,211.928991 C2.41506933,208.826046 1,206.087282 1,203.831364 C1,201.124601 3.20958017,198.919997 5.92467692,198.919997 C7.39932633,198.919997 8.79465316,199.582792 9.72802807,200.716327 L10.4999869,201.653831 L11.2719613,200.71634 C12.2053512,199.582825 13.6007367,198.919997 15.0753231,198.919997 C17.7904198,198.919997 20,201.124601 20,203.831364 C20,206.087329 18.5848821,208.826136 15.7302312,211.929082 C14.0183457,213.789838 12.1212843,215.438122 10.4998924,216.669362 Z" id="Favorite"></path>
			</g>
		</g>
	</g>
</svg>