<?xml version="1.0" encoding="utf-8"?>
<!-- Generator: Adobe Illustrator 20.1.0, SVG Export Plug-In . SVG Version: 6.00 Build 0)  -->
<svg version="1.1" id="Layer_1" xmlns="http://www.w3.org/2000/svg" xmlns:xlink="http://www.w3.org/1999/xlink" x="0px" y="0px"
	 viewBox="0 0 30 30" style="enable-background:new 0 0 30 30;" xml:space="preserve">
<style type="text/css">
	.st0{fill:#181818;}
</style>
<path id="Path" class="st0" d="M19.5,18.3c2.7-2.9,4-5.5,4-7.4c0-2.2-1.8-3.9-3.9-3.9c-1.2,0-2.3,0.5-3,1.4L15,10.3l-1.5-1.9
	c-0.7-0.9-1.9-1.4-3-1.4c-2.2,0-3.9,1.8-3.9,3.9c0,2,1.3,4.5,4,7.4c1.5,1.6,3.1,3,4.5,4.2C16.4,21.3,18,19.9,19.5,18.3z M15,7.2
	l1.5-1.3c0.9-0.6,1.9-0.9,3-0.9c3.3,0,5.9,2.7,5.9,5.9c0,2.6-1.5,5.5-4.5,8.8c-2.3,2.5-4.8,4.5-5.6,5L15,25l-0.4-0.3
	c-0.7-0.5-3.2-2.5-5.6-5c-3-3.3-4.5-6.2-4.5-8.8C4.5,7.7,7.2,5,10.4,5c1.1,0,2.2,0.3,3.1,0.9C13.5,5.9,14,6.3,15,7.2z"/>
</svg>
