<?xml version="1.0" encoding="UTF-8"?>
<svg width="43px" height="41px" viewBox="0 0 43 41" version="1.1" xmlns="http://www.w3.org/2000/svg" xmlns:xlink="http://www.w3.org/1999/xlink">
    <defs></defs>
    <g id="Style-guide" stroke="none" stroke-width="1" fill="none" fill-rule="evenodd">
        <g id="icons" transform="translate(-178.000000, -368.000000)" stroke-width="2" stroke="#181818">
            <g id="Icons" transform="translate(39.000000, 40.000000)">
                <g id="adv3" transform="translate(140.000000, 328.000000)">
                    <g id="icon-3" transform="translate(0.000000, 1.000000)">
                        <polyline id="Rectangle-2" transform="translate(8.500000, 8.000000) scale(1, -1) translate(-8.500000, -8.000000) " points="1 11.0140829 1 0 17 0 17 16 0 16"></polyline>
                        <path d="M22,28 C25.8659932,28 29,24.8659932 29,21 C29,17.1340068 25.8659932,14 22,14 C18.1340068,14 15,17.1340068 15,21" id="Oval" transform="translate(22.000000, 21.000000) rotate(-270.000000) translate(-22.000000, -21.000000) "></path>
                        <path d="M4,24 L10,24" id="Path-3-Copy-2" transform="translate(7.000000, 24.000000) rotate(-90.000000) translate(-7.000000, -24.000000) "></path>
                        <polyline id="Path-2" points="0 34 5 38 9 34 13 38 17 34 21 38 25 34 29 38 33 34 36.9954419 38 40 38"></polyline>
                        <polyline id="Triangle" points="31 15 34.5 8 40 19 32 19"></polyline>
                    </g>
                </g>
            </g>
        </g>
    </g>
</svg>