<?xml version="1.0" encoding="UTF-8"?>
<svg width="41px" height="41px" viewBox="0 0 41 41" version="1.1" xmlns="http://www.w3.org/2000/svg" xmlns:xlink="http://www.w3.org/1999/xlink">
    <defs></defs>
    <g id="Style-guide" stroke="none" stroke-width="1" fill="none" fill-rule="evenodd">
        <g id="icons" transform="translate(-388.000000, -368.000000)" stroke-width="2">
            <g id="Icons" transform="translate(39.000000, 40.000000)">
                <g id="adv6" transform="translate(350.000000, 328.000000)">
                    <polyline id="Rectangle-6" stroke="#000000" transform="translate(12.500000, 7.500000) rotate(-180.000000) translate(-12.500000, -7.500000) " points="13 1 24 1 24 14 1 14 1 7"></polyline>
                    <polyline id="Rectangle-6-Copy" stroke="#000000" points="16 21.1707342 16 12 39 12 39 25 20 25"></polyline>
                    <path d="M3,27 L9,27" id="Path-6" stroke="#000000"></path>
                    <polyline id="Path-5" stroke="#000000" points="0 40 12 28 12 36"></polyline>
                    <path d="M20,20 L35,20" id="Path-3-Copy-17" stroke="#181818"></path>
                    <path d="M33,17 L35,17" id="Path-3-Copy-18" stroke="#181818"></path>
                    <path d="M10,7.5 C10,6.11928813 8.88071187,5 7.5,5 C6.11928813,5 5,6.11928813 5,7.5" id="Oval-Copy" stroke="#000000"></path>
                </g>
            </g>
        </g>
    </g>
</svg>