<?xml version="1.0" encoding="UTF-8"?>
<svg width="40px" height="40px" viewBox="0 0 40 40" version="1.1" xmlns="http://www.w3.org/2000/svg" xmlns:xlink="http://www.w3.org/1999/xlink">
    <defs></defs>
    <g id="Style-guide" stroke="none" stroke-width="1" fill="none" fill-rule="evenodd">
        <g id="icons" transform="translate(-39.000000, -368.000000)" stroke-width="2" stroke="#181818">
            <g id="Icons" transform="translate(39.000000, 40.000000)">
                <g id="adv1" transform="translate(0.000000, 328.000000)">
                    <polyline id="Rectangle-4" points="24 5 24 15 11 15.0124964 11 1 39 1 39 39 11 39 11 19.0402633"></polyline>
                    <path d="M28,15 L30,15" id="Path-3-Copy-3"></path>
                    <path d="M15,24 L20,24" id="Path-3-Copy"></path>
                    <path d="M15,10 L20,10" id="Path-3-Copy-9"></path>
                    <path d="M15,6 L20,6" id="Path-3-Copy-10"></path>
                    <path d="M12,31 L20,31" id="Path-3-Copy-2" transform="translate(16.000000, 31.000000) rotate(-90.000000) translate(-16.000000, -31.000000) "></path>
                    <path d="M29.5,34 C31.9852814,34 34,31.9852814 34,29.5 C34,27.0147186 31.9852814,25 29.5,25 C27.0147186,25 25,27.0147186 25,29.5" id="Oval" transform="translate(29.500000, 29.500000) rotate(-90.000000) translate(-29.500000, -29.500000) "></path>
                    <path d="M33,15 L35,15" id="Path-3-Copy-4"></path>
                    <path d="M28,11 L30,11" id="Path-3-Copy-6"></path>
                    <path d="M33,11 L35,11" id="Path-3-Copy-5"></path>
                    <path d="M28,7 L30,7" id="Path-3-Copy-8"></path>
                    <path d="M33,7 L35,7" id="Path-3-Copy-7"></path>
                    <path d="M-15,20 L17,20" id="Path-3-Copy-11" transform="translate(1.000000, 20.000000) rotate(-90.000000) translate(-1.000000, -20.000000) "></path>
                </g>
            </g>
        </g>
    </g>
</svg>