<?xml version="1.0" encoding="UTF-8"?>
<svg width="16px" height="16px" viewBox="0 0 16 16" version="1.1" xmlns="http://www.w3.org/2000/svg" xmlns:xlink="http://www.w3.org/1999/xlink">
    <defs></defs>
    <g id="Style-guide" stroke="none" stroke-width="1" fill="none" fill-rule="evenodd">
        <g id="icons" transform="translate(-192.000000, -92.000000)" fill-rule="nonzero" fill="#181818">
            <g id="Icons" transform="translate(39.000000, 40.000000)">
                <path d="M160.875,67.75 C156.525758,67.75 153,64.2242424 153,59.875 C153,55.5257576 156.525758,52 160.875,52 C165.224242,52 168.75,55.5257576 168.75,59.875 C168.75,64.2242424 165.224242,67.75 160.875,67.75 Z M160.875,66 C164.257744,66 167,63.2577441 167,59.875 C167,56.4922559 164.257744,53.75 160.875,53.75 C157.492256,53.75 154.75,56.4922559 154.75,59.875 C154.75,63.2577441 157.492256,66 160.875,66 Z M159.504202,63.5911629 C159.314353,63.4019373 159.21943,63.1689129 159.21943,62.8920828 C159.21943,62.6152527 159.314353,62.3822283 159.504202,62.1930026 C159.694052,62.003777 159.927844,61.9091656 160.205587,61.9091656 C160.483329,61.9091656 160.717122,62.003777 160.906971,62.1930026 C161.09682,62.3822283 161.191744,62.6152527 161.191744,62.8920828 C161.191744,63.1689129 161.09682,63.4019373 160.906971,63.5911629 C160.717122,63.7803886 160.483329,63.875 160.205587,63.875 C159.927844,63.875 159.694052,63.7803886 159.504202,63.5911629 Z M159.008487,56.5215177 C159.444437,56.0905038 160.045618,55.875 160.812047,55.875 C161.578476,55.875 162.197235,56.0782393 162.668342,56.484724 C163.13945,56.8912088 163.375,57.453621 163.375,58.1719777 C163.375,58.8903343 163.172849,59.408945 162.76854,59.7278252 C162.364231,60.0467055 161.778871,60.2131515 161.012442,60.2271682 L161.012442,61.2258541 L159.314354,61.2258541 L159.314354,59.0602825 L160.021012,59.0602825 C160.569466,59.0602825 160.973768,58.9972083 161.233932,58.8710578 C161.494096,58.7449074 161.624176,58.5031227 161.624176,58.1456965 C161.624176,57.9074123 161.55562,57.7146854 161.418507,57.5675099 C161.281394,57.4203343 161.091547,57.3467477 160.848962,57.3467477 C160.606377,57.3467477 160.41653,57.4185823 160.279417,57.5622536 C160.142303,57.7059249 160.073748,57.9004039 160.073748,58.1456965 L158.375659,58.1456965 C158.361596,57.4939192 158.572537,56.9525317 159.008487,56.5215177 Z" id="infp"></path>
            </g>
        </g>
    </g>
</svg>