<svg width="16px" height="16px" viewBox="0 0 16 16" version="1.1" xmlns="http://www.w3.org/2000/svg" xmlns:xlink="http://www.w3.org/1999/xlink">
    <!-- Generator: Sketch 44.1 (41455) - http://www.bohemiancoding.com/sketch -->
    <desc>Created with Sketch.</desc>
    <defs></defs>
    <g id="Style-guide" stroke="none" stroke-width="1" fill="none" fill-rule="evenodd">
        <g id="icons" transform="translate(-147.000000, -92.000000)" fill-rule="nonzero" fill="#181818">
            <g id="Icons" transform="translate(39.000000, 40.000000)">
                <path d="M119.584484,52 C122.019283,52 124.000095,53.9808118 124,56.4154216 L124,63.5845784 C124,66.0191882 122.019283,68 119.584484,68 L112.415327,68 C109.980717,68 108,66.0192829 108,63.5845784 L108,56.4154216 C108,53.9808118 109.980717,52 112.415327,52 L119.584484,52 Z M116,55.8773941 C113.726656,55.8773941 111.877205,57.7268458 111.877205,60.0001893 C111.877205,62.2734381 113.726656,64.1227952 116,64.1227952 C118.273344,64.1227952 120.122795,62.2734381 120.122795,60.0001893 C120.122795,57.7268458 118.273344,55.8773941 116,55.8773941 Z M116,62.703103 C114.509517,62.703103 113.296802,61.4905774 113.296802,60.0000946 C113.296802,58.5095172 114.509423,57.296897 116,57.296897 C117.490577,57.296897 118.703198,58.5095172 118.703198,60.0000946 C118.703198,61.4905774 117.490483,62.703103 116,62.703103 Z M120.295702,54.67367 C120.022193,54.67367 119.753511,54.7843986 119.560351,54.9784103 C119.366244,55.1714756 119.254664,55.4402527 119.254664,55.7147082 C119.254664,55.988312 119.366339,56.2569945 119.560351,56.4510061 C119.753416,56.6440714 120.022193,56.7557464 120.295702,56.7557464 C120.570158,56.7557464 120.837988,56.6440714 121.032,56.4510061 C121.226012,56.2569945 121.33674,55.9882173 121.33674,55.7147082 C121.33674,55.4402527 121.226012,55.1714756 121.032,54.9784103 C120.838935,54.7843986 120.570158,54.67367 120.295702,54.67367 Z" id="Combined-Shape"></path>
            </g>
        </g>
    </g>
</svg>