<?xml version="1.0" encoding="utf-8"?>
<!-- Generator: Adobe Illustrator 20.1.0, SVG Export Plug-In . SVG Version: 6.00 Build 0)  -->
<svg version="1.1" id="Layer_1" xmlns="http://www.w3.org/2000/svg" xmlns:xlink="http://www.w3.org/1999/xlink" x="0px" y="0px"
	 viewBox="0 0 30 30" style="enable-background:new 0 0 30 30;" xml:space="preserve">
<style type="text/css">
	.st0{fill:#181818;}
</style>
<path id="Combined-Shape" class="st0" d="M22.9,17.3l-1.7-1.1c1.5-2,2.2-3.8,2.2-5.3c0-2.2-1.8-3.9-3.9-3.9c-1.2,0-2.3,0.5-3,1.4
	L15,10.3l-1.5-1.9c-0.7-0.9-1.9-1.4-3-1.4C9.8,7,9.1,7.2,8.6,7.5L6.8,6.3C7.8,5.5,9.1,5,10.4,5c1.1,0,2.2,0.3,3.1,0.9
	c0,0,0.5,0.4,1.5,1.3l1.5-1.3c0.9-0.6,1.9-0.9,3-0.9c3.3,0,5.9,2.7,5.9,5.9C25.5,12.8,24.6,15,22.9,17.3z M18.9,21.8
	c-1.6,1.5-3,2.5-3.5,2.9L15,25l-0.4-0.3c-0.7-0.5-3.2-2.5-5.6-5C6.5,16.9,5,14.3,4.6,12l2.7,1.8c0.7,1.3,1.7,2.8,3.2,4.5
	c1.5,1.6,3.1,3,4.5,4.2c0.7-0.6,1.4-1.2,2.2-1.9L18.9,21.8z"/>
<polygon id="Path-8" class="st0" points="2,7.8 23.9,22.8 25.1,21.2 3.1,6.1 "/>
</svg>
