<?xml version="1.0" encoding="UTF-8"?>
<svg width="16px" height="15px" viewBox="0 0 16 15" version="1.1" xmlns="http://www.w3.org/2000/svg" xmlns:xlink="http://www.w3.org/1999/xlink">
    <defs></defs>
    <g id="Style-guide" stroke="none" stroke-width="1" fill="none" fill-rule="evenodd">
        <g id="icons" transform="translate(-100.000000, -142.000000)" fill-rule="nonzero" fill="#181818">
            <g id="Icons" transform="translate(39.000000, 40.000000)">
                <path d="M77,111.196488 L77,117 L73.5706819,117 L73.5706819,111.585172 C73.5706819,110.224923 73.0746681,109.296607 71.8333686,109.296607 C70.8857939,109.296607 70.3218915,109.922224 70.0738101,110.527404 C69.9833417,110.743753 69.9600551,111.044883 69.9600551,111.347728 L69.9600551,117 L66.5295838,117 C66.5295838,117 66.5757852,107.829059 66.5295838,106.878881 L69.9597203,106.878881 L69.9597203,108.313509 C69.952764,108.324239 69.9437246,108.335809 69.9371776,108.34621 L69.9597203,108.34621 L69.9597203,108.313509 C70.4154474,107.624863 71.2293283,106.641109 73.0510466,106.641109 C75.3080325,106.641072 77,108.087671 77,111.196488 Z M62.9411648,102 C61.7676051,102 61,102.755215 61,103.748349 C61,104.719841 61.7453972,105.497976 62.895633,105.497976 L62.9185477,105.497976 C64.1148362,105.497976 64.8588198,104.719987 64.8588198,103.748349 C64.8362771,102.755215 64.1148362,102 62.9411648,102 Z M61.2037399,117 L64.6329092,117 L64.6329092,106.878881 L61.2037399,106.878881 L61.2037399,117 Z" id="LinkedIn"></path>
            </g>
        </g>
    </g>
</svg>