<?xml version="1.0" encoding="UTF-8"?>
<svg width="46px" height="50px" viewBox="0 0 46 50" version="1.1" xmlns="http://www.w3.org/2000/svg" xmlns:xlink="http://www.w3.org/1999/xlink">
    <defs></defs>
    <g id="Website" stroke="none" stroke-width="1" fill="none" fill-rule="evenodd">
        <g id="Pre-Loader" transform="translate(-700.000000, -380.000000)" fill-rule="nonzero" fill="#181818">
            <path d="M700.756256,399.809036 L702.772938,399.809036 L702.772938,401.808939 L700.756256,401.808939 L700.756256,399.809036 Z M703.529194,409.448567 L703.529194,410.448518 L700,410.448518 L700,409.448567 L700.756256,409.448567 L700.756256,404.398813 L700,404.398813 L700,403.398862 L700.756256,403.398862 L702.772938,403.398862 L702.772938,409.448567 L703.529194,409.448567 Z M720.781913,380.000001 L720.781913,380.000001 C732.770883,379.996676 743.10355,388.367378 745.492127,400.018245 C747.880705,411.669112 741.664277,423.376366 730.625755,428.015737 C719.587234,432.655109 706.780962,428.94289 700,419.138095 C706.246812,417.215403 710.504973,411.485132 710.506916,404.998784 C710.504973,398.512435 706.246812,392.782164 700,390.859472 C704.699365,384.064519 712.473276,380.002306 720.781913,380.000001 Z M723.675853,414.178337 C726.010941,414.18256 728.270828,413.359883 730.048569,411.85845 L729.393147,411.098487 C727.798059,412.445023 725.770608,413.182591 723.675853,413.178385 C720.629976,413.178385 717.815469,411.56695 716.292531,408.951091 C714.769593,406.335232 714.769593,403.112362 716.292531,400.496503 C717.815469,397.880644 720.629976,396.269209 723.675853,396.269209 C725.666972,396.267327 727.600192,396.933391 729.161229,398.159117 L729.786401,397.379155 C728.047956,396.012276 725.894417,395.268686 723.675853,395.269257 C720.26973,395.269257 717.122343,397.071282 715.419282,399.996527 C713.716221,402.921772 713.716221,406.525822 715.419282,409.451067 C717.122343,412.376312 720.26973,414.178337 723.675853,414.178337 Z M733.406346,409.748552 L736.985957,402.018929 L736.068367,401.598949 L733.426513,407.298672 L730.905659,401.598949 L729.977985,401.99893 L733.406346,409.748552 Z" id="logo"></path>
        </g>
    </g>
</svg>