<?xml version="1.0" encoding="UTF-8"?>
<svg width="25px" height="25px" viewBox="0 0 25 25" version="1.1" xmlns="http://www.w3.org/2000/svg" xmlns:xlink="http://www.w3.org/1999/xlink">
    <defs></defs>
    <g id="Website" stroke="none" stroke-width="1" fill="none" fill-rule="evenodd">
        <g id="CV-contents" transform="translate(-913.000000, -213.000000)" fill-rule="nonzero" fill="#181818">
            <g id="left-side" transform="translate(378.000000, 115.000000)">
                <g id="Group-2" transform="translate(125.000000, 80.000000)">
                    <g id="Group" transform="translate(410.000000, 18.000000)">
                        <path d="M17.4549585,16.2263601 L25,23.5864139 L23.6192097,25 L16.0388376,17.6054818 C14.3501793,18.9503381 12.2108681,19.7540789 9.88370645,19.7540789 C4.42508611,19.7540789 0,15.3319777 0,9.87703945 C0,4.42210119 4.42508611,0 9.88370645,0 C15.3423268,0 19.7674129,4.42210119 19.7674129,9.87703945 C19.7674129,12.2947243 18.8981695,14.5095234 17.4549585,16.2263601 Z M9.88370645,17.778671 C14.2506027,17.778671 17.7906716,14.2409901 17.7906716,9.87703945 C17.7906716,5.51308884 14.2506027,1.97540789 9.88370645,1.97540789 C5.51681017,1.97540789 1.97674129,5.51308884 1.97674129,9.87703945 C1.97674129,14.2409901 5.51681017,17.778671 9.88370645,17.778671 Z" id="serch_icon"></path>
                    </g>
                </g>
            </g>
        </g>
    </g>
</svg>