<?xml version="1.0" encoding="UTF-8"?>
<svg width="16px" height="13px" viewBox="0 0 16 13" version="1.1" xmlns="http://www.w3.org/2000/svg" xmlns:xlink="http://www.w3.org/1999/xlink">
    <defs></defs>
    <g id="Style-guide" stroke="none" stroke-width="1" fill="none" fill-rule="evenodd">
        <g id="icons" transform="translate(-100.000000, -191.000000)" fill-rule="nonzero" fill="#181818">
            <g id="Icons" transform="translate(39.000000, 40.000000)">
                <path d="M77,152.538105 C76.4111101,152.799114 75.7792398,152.976128 75.1153433,153.055156 C75.7932268,152.649114 76.3121296,152.005075 76.5580646,151.240011 C75.9221943,151.616032 75.2203108,151.889071 74.4724403,152.037084 C73.8735635,151.39804 73.021719,151 72.0768808,151 C70.2642243,151 68.7944964,152.470113 68.7944964,154.28225 C68.7944964,154.539259 68.8234899,154.79028 68.87949,155.030317 C66.1520084,154.893287 63.7334685,153.586198 62.1147731,151.600027 C61.8318184,152.084076 61.6708508,152.648094 61.6708508,153.250161 C61.6708508,154.389259 62.2507471,155.394334 63.1305917,155.982358 C62.5926823,155.964367 62.086773,155.816354 61.6438703,155.570328 L61.6438703,155.611332 C61.6438703,157.201451 62.775663,158.528545 64.2763714,158.830586 C64.0014167,158.904592 63.7114816,158.945597 63.4115334,158.945597 C63.1995853,158.945597 62.9946176,158.924598 62.79365,158.884587 C63.2115592,160.189689 64.423352,161.138749 65.8590929,161.164769 C64.7362937,162.044844 63.3205528,162.567884 61.782851,162.567884 C61.5179093,162.567884 61.2569416,162.55188 61,162.522879 C62.4527344,163.455961 64.177417,164 66.031067,164 C72.0689331,164 75.3693307,158.99761 75.3693307,154.659291 L75.3583241,154.234264 C76.0031879,153.774195 76.5610712,153.19616 77,152.538105 Z" id="Shape"></path>
            </g>
        </g>
    </g>
</svg>