<?xml version="1.0" encoding="UTF-8"?>
<svg width="18px" height="20px" viewBox="0 0 18 20" version="1.1" xmlns="http://www.w3.org/2000/svg" xmlns:xlink="http://www.w3.org/1999/xlink">
    <defs></defs>
    <g id="Style-guide" stroke="none" stroke-width="1" fill="none" fill-rule="evenodd">
        <g id="icons" transform="translate(-40.000000, -188.000000)" fill="#181818">
            <g id="Icons" transform="translate(39.000000, 40.000000)">
                <path d="M15.9999991,162.079999 C15.2399988,162.079999 14.5599986,162.379998 14.0400001,162.849999 L6.90999949,158.699999 C6.95999967,158.47 6.99999964,158.239999 6.99999964,157.999999 C6.99999964,157.76 6.95999967,157.529999 6.90999949,157.3 L13.9599992,153.19 C14.4999992,153.69 15.2099981,154 15.9999991,154 C17.6599988,154 18.9999989,152.66 18.9999989,151 C18.9999989,149.34 17.6599988,148 15.9999991,148 C14.3399993,148 12.9999993,149.34 12.9999993,151 C12.9999993,151.24 13.0399992,151.47 13.0899994,151.7 L6.03999966,155.81 C5.49999973,155.31 4.78999973,155 3.99999982,155 C2.34000007,155 1,156.34 1,157.999999 C1,159.659999 2.34000007,160.999999 3.99999982,160.999999 C4.78999973,160.999999 5.49999973,160.689999 6.03999966,160.189999 L13.1599991,164.349997 C13.1099989,164.559997 13.0799992,164.779998 13.0799992,164.999997 C13.0799992,166.609998 14.3899985,167.919997 15.9999991,167.919997 C17.6099996,167.919997 18.9199989,166.609998 18.9199989,164.999997 C18.9199989,163.389996 17.6099996,162.079997 15.9999991,162.079997 L15.9999991,162.079999 Z" id="share"></path>
            </g>
        </g>
    </g>
</svg>