<svg id="Слой_1" data-name="Слой 1" xmlns="http://www.w3.org/2000/svg" viewBox="0 0 149.94 60"><defs><style>.cls-1{fill:#121212;}</style></defs><title>logo_full</title><polygon class="cls-1" points="39.94 0 0 0 0 10 35.13 10 39.94 0"/><polygon class="cls-1" points="25.56 30.05 14.46 30.05 0 60 11.1 60 40.02 60 40.02 50 15.91 50 25.56 30.05"/><rect class="cls-1" x="55.02" width="10" height="10"/><path class="cls-1" d="M179.91,1090.86h-10v10h10a10,10,0,0,1,0,20v10A20,20,0,0,0,179.91,1090.86Z" transform="translate(-89.97 -1090.86)"/><polygon class="cls-1" points="129.94 50 129.94 30 119.94 30 119.94 60 139.94 60 149.94 60 149.94 50 129.94 50"/></svg>